<control>


default_path=//NDK/samples/kicks/kd14bop/snare_on/cls\


<global>
loop_mode=one_shot

//ampeg_attack=0.001
//ampeg_release=0.15
//ampeg_dynamic=1


<group> //Begin Group for entire instrument
key=11



<region>
sample=kd14wbop_cls_001.wav
lovel=0
hivel=0


<region>
sample=kd14wbop_cls_002.wav
lovel=1
hivel=2


<region>
sample=kd14wbop_cls_003.wav
lovel=3
hivel=3


<region>
sample=kd14wbop_cls_004x.wav
lovel=4
hivel=5


<region>
sample=kd14wbop_cls_005.wav
lovel=6
hivel=6


<region>
sample=kd14wbop_cls_006.wav
lovel=7
hivel=8


<region>
sample=kd14wbop_cls_007.wav
lovel=9
hivel=9


<region>
sample=kd14wbop_cls_008.wav
lovel=10
hivel=11


<region>
sample=kd14wbop_cls_009.wav
lovel=12
hivel=13


<region>
sample=kd14wbop_cls_010.wav
lovel=14
hivel=14


<region>
sample=kd14wbop_cls_011x.wav
lovel=15
hivel=16


<region>
sample=kd14wbop_cls_012.wav
lovel=17
hivel=17


<region>
sample=kd14wbop_cls_013.wav
lovel=18
hivel=19


<region>
sample=kd14wbop_cls_014.wav
lovel=20
hivel=20


<region>
sample=kd14wbop_cls_015x.wav
lovel=21
hivel=22


<region>
sample=kd14wbop_cls_016x.wav
lovel=23
hivel=24


<region>
sample=kd14wbop_cls_017x.wav
lovel=25
hivel=25


<region>
sample=kd14wbop_cls_018x.wav
lovel=26
hivel=27


<region>
sample=kd14wbop_cls_019x.wav
lovel=28
hivel=28


<region>
sample=kd14wbop_cls_020x.wav
lovel=29
hivel=30


<region>
sample=kd14wbop_cls_021x.wav
lovel=31
hivel=31


<region>
sample=kd14wbop_cls_022x.wav
lovel=32
hivel=33


<region>
sample=kd14wbop_cls_023x.wav
lovel=34
hivel=35


<region>
sample=kd14wbop_cls_024x.wav
lovel=36
hivel=36


<region>
sample=kd14wbop_cls_025x.wav
lovel=37
hivel=38


<region>
sample=kd14wbop_cls_026x.wav
lovel=39
hivel=39


<region>
sample=kd14wbop_cls_027x.wav
lovel=40
hivel=41


<region>
sample=kd14wbop_cls_028x.wav
lovel=42
hivel=42


<region>
sample=kd14wbop_cls_029x.wav
lovel=43
hivel=44


<region>
sample=kd14wbop_cls_030x.wav
lovel=45
hivel=46


<region>
sample=kd14wbop_cls_031.wav
lovel=47
hivel=47


<region>
sample=kd14wbop_cls_032.wav
lovel=48
hivel=49


<region>
sample=kd14wbop_cls_033x.wav
lovel=50
hivel=50


<region>
sample=kd14wbop_cls_034.wav
lovel=51
hivel=52


<region>
sample=kd14wbop_cls_035.wav
lovel=53
hivel=53


<region>
sample=kd14wbop_cls_036x.wav
lovel=54
hivel=55


<region>
sample=kd14wbop_cls_037x.wav
lovel=56
hivel=57


<region>
sample=kd14wbop_cls_038.wav
lovel=58
hivel=58


<region>
sample=kd14wbop_cls_039x.wav
lovel=59
hivel=60


<region>
sample=kd14wbop_cls_040.wav
lovel=61
hivel=61


<region>
sample=kd14wbop_cls_041x.wav
lovel=62
hivel=63


<region>
sample=kd14wbop_cls_042.wav
lovel=64
hivel=64


<region>
sample=kd14wbop_cls_043.wav
lovel=65
hivel=66


<region>
sample=kd14wbop_cls_044.wav
lovel=67
hivel=67


<region>
sample=kd14wbop_cls_045.wav
lovel=68
hivel=69


<region>
sample=kd14wbop_cls_046.wav
lovel=70
hivel=71


<region>
sample=kd14wbop_cls_047.wav
lovel=72
hivel=72


<region>
sample=kd14wbop_cls_048.wav
lovel=73
hivel=74


<region>
sample=kd14wbop_cls_049.wav
lovel=75
hivel=75


<region>
sample=kd14wbop_cls_050.wav
lovel=76
hivel=77


<region>
sample=kd14wbop_cls_051.wav
lovel=78
hivel=78


<region>
sample=kd14wbop_cls_052.wav
lovel=79
hivel=80


<region>
sample=kd14wbop_cls_053x.wav
lovel=81
hivel=82


<region>
sample=kd14wbop_cls_054.wav
lovel=83
hivel=83


<region>
sample=kd14wbop_cls_055x.wav
lovel=84
hivel=85


<region>
sample=kd14wbop_cls_056.wav
lovel=86
hivel=86


<region>
sample=kd14wbop_cls_057.wav
lovel=87
hivel=88


<region>
sample=kd14wbop_cls_058.wav
lovel=89
hivel=89


<region>
sample=kd14wbop_cls_059.wav
lovel=90
hivel=91


<region>
sample=kd14wbop_cls_060.wav
lovel=92
hivel=93


<region>
sample=kd14wbop_cls_061x.wav
lovel=94
hivel=94


<region>
sample=kd14wbop_cls_062x.wav
lovel=95
hivel=96


<region>
sample=kd14wbop_cls_063.wav
lovel=97
hivel=97


<region>
sample=kd14wbop_cls_064.wav
lovel=98
hivel=99


<region>
sample=kd14wbop_cls_065x.wav
lovel=100
hivel=100


<region>
sample=kd14wbop_cls_066x.wav
lovel=101
hivel=102


<region>
sample=kd14wbop_cls_067.wav
lovel=103
hivel=104


<region>
sample=kd14wbop_cls_068.wav
lovel=105
hivel=105


<region>
sample=kd14wbop_cls_069x.wav
lovel=106
hivel=107


<region>
sample=kd14wbop_cls_070x.wav
lovel=108
hivel=108


<region>
sample=kd14wbop_cls_071x.wav
lovel=109
hivel=110


<region>
sample=kd14wbop_cls_072x.wav
lovel=111
hivel=111


<region>
sample=kd14wbop_cls_073x.wav
lovel=112
hivel=113


<region>
sample=kd14wbop_cls_074.wav
lovel=114
hivel=115


<region>
sample=kd14wbop_cls_075x.wav
lovel=116
hivel=116


<region>
sample=kd14wbop_cls_076.wav
lovel=117
hivel=118


<region>
sample=kd14wbop_cls_077.wav
lovel=119
hivel=119


<region>
sample=kd14wbop_cls_078x.wav
lovel=120
hivel=121


<region>
sample=kd14wbop_cls_079x.wav
lovel=122
hivel=122


<region>
sample=kd14wbop_cls_080.wav
lovel=123
hivel=124


<region>
sample=kd14wbop_cls_081.wav
lovel=125
hivel=127


